<svg xmlns="http://www.w3.org/2000/svg" viewBox="0 0 10.3 9.97"><defs><style>.cls-1{fill:#fff;}</style></defs><g id="Layer_2" data-name="Layer 2"><g id="Layer_1-2" data-name="Layer 1"><rect class="cls-1" y="3.24" width="2.24" height="6.73"/><path class="cls-1" d="M1.12,2.33h0a1.16,1.16,0,0,1-1-1.27A1.16,1.16,0,0,1,1.34,0,1.15,1.15,0,0,1,2.4,1.16,1.15,1.15,0,0,1,1.26,2.34H1.12Z"/><path class="cls-1" d="M10.3,10H8.07V6.37c0-.9-.33-1.52-1.14-1.52a1.24,1.24,0,0,0-1.14.82,1.45,1.45,0,0,0-.08.54V10H3.48V3.24H5.71v1a2.24,2.24,0,0,1,2-1.11c1.47,0,2.57,1,2.57,3Z"/></g></g></svg>