<svg id="Isolation_Mode" data-name="Isolation Mode" xmlns="http://www.w3.org/2000/svg" viewBox="0 0 64 64"><defs><style>.cls-1{fill:none;stroke:#464646;stroke-linecap:round;stroke-linejoin:round;stroke-width:2px;}</style></defs><g id="creative_idea" data-name="creative idea"><path class="cls-1" d="M213,273h0a5,5,0,0,0,5,5h5a5,5,0,0,0,5-5h0" transform="translate(-179 -215)"/><line class="cls-1" x1="42" y1="1" x2="42" y2="3"/><line class="cls-1" x1="58.91" y1="9.74" x2="60.38" y2="8.32"/><line class="cls-1" x1="51.15" y1="4.75" x2="51.95" y2="2.9"/><line class="cls-1" x1="32.85" y1="4.75" x2="32.05" y2="2.9"/><path class="cls-1" d="M213,265s-.79-4.15-2.37-6.23C207,254,203,248.15,203,242a18,18,0,0,1,36,0l3,9h-5v6a4,4,0,0,1-4,4h-1.66a3,3,0,0,0-2.91,2.27h0a14.86,14.86,0,0,0-.43,3.51V269H213" transform="translate(-179 -215)"/><path class="cls-1" d="M218,259c0-6,0-12-4-16h14c-4,4-4,10-4,16" transform="translate(-179 -215)"/><path class="cls-1" d="M207,224h-3a2,2,0,0,0-2,2v.84a2,2,0,0,1-1.23,1.85l-5.14,2.12a2,2,0,0,1-2.18-.43l-.59-.59a2,2,0,0,0-2.83,0L185.79,234a2,2,0,0,0,0,2.83l.59.59a2,2,0,0,1,.43,2.18l-2.12,5.14a2,2,0,0,1-1.85,1.23H182a2,2,0,0,0-2,2v6a2,2,0,0,0,2,2h.84a2,2,0,0,1,1.85,1.23l2.12,5.14a2,2,0,0,1-.43,2.18l-.59.59a2,2,0,0,0,0,2.83l4.24,4.24a2,2,0,0,0,2.83,0l.59-.59a2,2,0,0,1,2.18-.43l5.14,2.12a2,2,0,0,1,1.23,1.85V276a2,2,0,0,0,2,2h4" transform="translate(-179 -215)"/><path class="cls-1" d="M196.51,243A14,14,0,0,0,208,265h5" transform="translate(-179 -215)"/></g></svg>